<?xml version="1.0" standalone="no"?><!DOCTYPE svg PUBLIC "-//W3C//DTD SVG 1.1//EN" "http://www.w3.org/Graphics/SVG/1.1/DTD/svg11.dtd"><svg t="1675242032918" class="icon" viewBox="0 0 1024 1024" version="1.1" xmlns="http://www.w3.org/2000/svg" p-id="2715" xmlns:xlink="http://www.w3.org/1999/xlink" width="200" height="200"><path d="M875.424 603.424q0 22.848-16 38.848t-38.848 16q-29.152 0-45.728-24.576l-129.728-194.848-25.728 0 0 75.424 141.152 234.848q5.152 8.576 5.152 18.848 0 14.848-10.848 25.728t-25.728 10.848l-109.728 0 0 155.424q0 26.272-18.848 45.152t-45.152 18.848l-91.424 0q-26.272 0-45.152-18.848t-18.848-45.152l0-155.424-109.728 0q-14.848 0-25.728-10.848t-10.848-25.728q0-10.272 5.152-18.848l141.152-234.848 0-75.424-25.728 0-129.728 194.848q-16.576 24.576-45.728 24.576-22.848 0-38.848-16t-16-38.848q0-16.576 9.152-30.272l146.272-219.424q41.728-61.152 100.576-61.152l219.424 0q58.848 0 100.576 61.152l146.272 219.424q9.152 13.728 9.152 30.272zM637.728 146.272q0 53.152-37.44 90.56t-90.56 37.44-90.56-37.44-37.44-90.56 37.44-90.56 90.56-37.44 90.56 37.44 37.44 90.56z" p-id="2716"></path></svg>