<?xml version="1.0" standalone="no"?><!DOCTYPE svg PUBLIC "-//W3C//DTD SVG 1.1//EN" "http://www.w3.org/Graphics/SVG/1.1/DTD/svg11.dtd"><svg t="1675325050594" class="icon" viewBox="0 0 1024 1024" version="1.1" xmlns="http://www.w3.org/2000/svg" p-id="1545" xmlns:xlink="http://www.w3.org/1999/xlink" width="200" height="200"><path d="M760.756083 402.285714v237.714286q0 22.857143-16 38.857143t-38.857143 16-38.857143-16-16-38.857143V438.857143h-36.571428v521.142857q0 26.285714-18.857143 45.142857t-45.142857 18.857143-45.142858-18.857143-18.857142-45.142857v-265.142857h-36.571429v265.142857q0 26.285714-18.857143 45.142857t-45.142857 18.857143-45.142857-18.857143-18.857143-45.142857V438.857143h-36.571429v201.142857q0 22.857143-16 38.857143t-38.857142 16-38.857143-16-16-38.857143V402.285714q0-45.714286 32-77.714285t77.714285-32h365.714286q45.714286 0 77.714286 32t32 77.714285zM596.184654 146.285714q0 53.142857-37.428571 90.571429T468.184654 274.285714t-90.571428-37.428571T340.184654 146.285714t37.428572-90.571428T468.184654 18.285714t90.571429 37.428572T596.184654 146.285714z" p-id="1546"></path></svg>